<svg version="1.2" xmlns="http://www.w3.org/2000/svg" viewBox="128 276 1685.0000000000002 445" width="1686" height="445"><defs><linearGradient id="P" gradientUnits="userSpaceOnUse"/><linearGradient id="g1" x2="1" href="#P" gradientTransform="matrix(175.661,-61.326,72.687,208.203,210.759,635.416)"><stop stop-color="#0094e5"/><stop offset="1" stop-color="#0059ef"/></linearGradient></defs><style>.a{fill:#25215e}.b{fill:#f1592a}.c{fill:url(#g1)}</style><path class="a" d="m647.4 474.4c6.2-10.1 15.4-15.1 27.6-15.1 25.8 0.8 38.7 17.8 38.7 50.8 0 32.3-15.2 48.6-45.2 49.1-30.2 0.2-45.5-14.2-45.5-43.4v-82.8h12.3c8 0 12.1 4.2 12.1 12.3zm0 34.7c-0.1 19.7 6.4 29.5 20.4 29.5 13.9 0 20.9-9.8 20.9-29.5-0.6-18.8-7.4-27.9-20.7-27.9-13.1 0-19.9 9.1-20.6 27.9z"/><path class="a" d="m753.5 486.1h-24.4c2.9-17.9 15.5-26.8 37.9-26.8 26.9 0 40.4 8.7 41 26.8v33c0 26.9-16.1 38.7-42.4 40.6-23.3 1.8-39.4-9.1-39.4-30.5 0.6-23.3 17.4-29.5 42.1-31.9 10.5-1.3 15.8-4.4 15.8-9.8-0.5-5.5-5.6-8.2-15.8-8.2-8.7 0-13.5 2.3-14.8 6.8zm30.8 31.9v-9c-5.7 2.4-12.3 4.4-19.5 5.9-9.8 1.8-14.7 6.4-14.7 13.6 0.6 7.7 4.7 11.4 12.3 11.4 13.7 0 21.9-8 21.9-21.9z"/><path class="a" d="m848.5 486.1h-24.4c3-17.9 15.5-26.8 38-26.8 26.8 0 40.4 8.7 40.9 26.8v33c0 26.9-16.1 38.7-42.3 40.6-23.3 1.8-39.4-9.1-39.4-30.5 0.5-23.3 17.3-29.5 42-31.9 10.5-1.3 15.9-4.4 15.9-9.8-0.6-5.5-5.7-8.2-15.9-8.2-8.7 0-13.5 2.3-14.8 6.8zm30.9 31.9v-9c-5.6 2.4-12.2 4.4-19.4 5.9-9.8 1.8-14.7 6.4-14.7 13.6 0.5 7.7 4.6 11.4 12.3 11.4 13.5 0 21.8-8 21.8-21.9z"/><path class="a" d="m988.7 557.8c-8-0.5-12.1-4.3-12.1-12.1v-50c-0.6-10-6.1-15.1-16.9-15.1-10.9 0-16.4 4.9-16.6 15.1v62h-24.7v-57.1c0-27.6 14-41.5 41.7-41.5 27.7 0 41.2 13.7 41.1 41.5v57.1h-12.5z"/><path class="a" d="m1040.7 495.8v62h-24.7v-57c0-27.7 14-41.5 41.7-41.5 12.4 0 22 2.8 28.9 8.3 6.9-5.4 16.5-7.9 29-7.9 27.6 0 41.5 13.7 41.2 41.5v57.1h-12.7c-8.1-0.6-12.2-4.4-12.2-12.2v-50c-0.5-10-6-15.1-16.9-15.1-10.9 0-16.4 5-16.5 15.1v61.7h-24.6v-62c-0.6-10-6.1-15.1-16.9-15.1-10.6 0-16.1 5.1-16.3 15.1z"/><path class="a" d="m1218.1 560.1c-29.4-0.9-44.1-17.9-44.1-51 0-33 14.8-49.6 44.5-49.7 30.8 0 45.3 18.9 43.5 56.9h-62.8c0.8 14.8 7.3 22.5 19.2 22.5 5.6 0 11-2.4 15.8-6.9 2.2-2.5 4.9-3.6 8.3-3.6h17.9c-5.3 20.4-18.5 31.8-42.3 31.8zm-18.7-61.3h36.6c-1.4-12.8-7.5-19.5-17.9-19.5-10.5 0-16.8 6.7-18.7 19.5z"/><path class="a" d="m1303.9 478.2h-2.5v53.8c0 4.1 2.4 6.2 7.2 6.2h7.5v18.5c-7.9 0.7-16.5 0.7-25.7-0.1-9.2-0.9-13.6-6.7-13.4-17.4v-106.1h12.7c6.3 0 11.7 6 11.7 12.3v15.4h14.7v5.4c0 6.9-5.4 12-12.2 12z"/><path class="a" d="m1374.4 560.1c-29.4 0-44.5-17-45.2-50.3 0-33.2 14.8-50 44.8-50.4 23.4 0 37.4 10.5 41.6 31.6h-26.5c-3-6.6-8.1-10-15.8-10-12.9 0-19.2 9.8-19.2 29 0 19.2 6.7 28.9 20.3 28.8 5.7 0 10.6-2.4 14.7-6.9 2.4-2.5 5.1-3.6 8.3-3.6h18.4c-4.5 19.6-18.8 32.4-41.4 31.8z"/><path class="a" d="m1457.4 486.1h-24.4c3-17.9 15.5-26.8 38-26.8 26.8 0 40.4 8.7 40.9 26.8v33c0 26.9-16.1 38.7-42.3 40.6-23.3 1.8-39.4-9.1-39.4-30.5 0.5-23.3 17.4-29.5 42.1-31.9 10.4-1.3 15.8-4.4 15.8-9.8-0.6-5.5-5.7-8.2-15.8-8.2-8.8 0-13.6 2.3-14.9 6.8zm30.8 31.9v-9c-5.6 2.4-12.3 4.4-19.5 5.9-9.7 1.8-14.7 6.4-14.7 13.6 0.6 7.7 4.6 11.4 12.3 11.4 13.7 0 21.9-8 21.9-21.9z"/><path class="a" d="m1614.9 509.8c0 33.5-14.8 50.3-44.2 50.3-29.4 0-44.1-17-44.1-50.3 0-33.7 14.7-50.4 44.1-50.4 29.4-0.1 44.2 16.7 44.2 50.4zm-63.6 0c0.2 18.9 6.7 28.4 19.1 28.4 12.4 0 18.8-9.9 18.9-29.2 0-18.9-6.2-28.3-18.7-28.3-12.8 0-19.3 9.8-19.3 29.1z"/><path class="b" d="m1645.7 538.6v19.2h-20.8v-12.1c0-4.8 2.6-7.2 7.9-7.2h12.9z"/><path class="b" d="m1732.5 557.8c-8-0.5-12.1-4.3-12.1-12.1v-50c-0.6-10-6.1-15.1-17-15.1-10.8 0-16.3 4.9-16.5 15.1v62h-24.7v-57.1c0-27.6 14-41.5 41.7-41.5 27.6 0 41.2 13.7 41.1 41.5v57.1h-12.5z"/><path class="b" d="m1784.1 445v112.8h-24.5v-124.8h12.7c6.5 0.1 11.8 5.6 11.8 12z"/><path class="a" d="m199.9 479.9c-20.6 0-37.3-16.7-37.3-37.3 0-20.6 16.7-37.3 37.3-37.3 20.6 0 37.3 16.7 37.3 37.3 0 20.6-16.7 37.3-37.3 37.3z"/><path class="a" d="m421.7 428c-32.1 0-58-25.9-58-58 0-32.1 25.9-58 58-58 32.1 0 58 25.9 58 58 0 32.1-25.9 58-58 58z"/><path class="a" d="m267.2 558l-10.9-22.3c-2-4.3-4.6-9-7.6-13.6-3.1-4.6-6.7-9.4-11.9-14-5.1-4.5-12.2-9.2-21.3-10.8-4.4-0.8-9.1-0.8-13.3-0.1-4.2 0.7-8 2.1-11.3 3.7-6.6 3.3-11.3 7.3-15.2 11.3-3.9 4.1-7.1 8.2-9.8 12.4-10.8 16.7-16.7 33.8-20.9 51.2-2.1 8.7-3.3 17.4-4.5 26.1-0.9 8.7-1.6 17.4-1.5 26.1 0 17.3 1.9 34.7 6.9 51 2.7-33.7 12.2-65.4 25.2-94.4 3.2-7.2 6.9-14 10.9-20.5 3.9-6.5 8.3-12.6 12.9-17.6 2.3-2.5 4.6-4.7 6.8-6.3 2.2-1.7 4.3-2.6 5.4-2.8 1.2-0.2 0.7 0.5-0.2 0.6-0.8 0-0.7 0.1 0.3 1.3 0.9 1.2 2.2 3.2 3.4 5.7 1.3 2.6 2.4 5.4 3.6 8.8l9 23.7c3.1 8 6.5 16.1 10.3 24.2 0.2 0.4 0.4 0.8 0.6 1.3l33.4-44.2c0-0.3-0.1-0.6-0.3-0.8z"/><path class="a" d="m542.5 583c-1.4-17.4-4-35.2-10.2-52.9-3.1-8.9-7.1-17.7-12.6-26.3-1.4-2.2-2.7-4.1-4.1-6-1.3-1.9-2.8-3.8-4.3-5.7-3-3.8-6.2-7.6-9.9-11.1-7.2-7.1-15.9-13.9-26.9-18.7-10.8-4.9-24-6.9-36.3-5.3-12.3 1.5-23.2 5.9-32.5 11.2-9.3 5.4-17.2 11.6-24.4 18-14.4 12.9-25.7 27.2-36.3 41.3-4.1 5.5-7.9 11-11.6 16.5l-3.8 29.7 48.7-0.7c3.3-5 6.5-10 9.8-14.8 8.8-13 18.4-25.1 28.2-35.3 9.8-10.1 20.5-17.5 29-19.4 4.3-1 8.2-0.9 13 0.4 4.7 1.3 9.9 4.2 15.1 8.2 5.1 3.9 10.5 9.2 15 14.5 4.3 5 8.2 10.9 11.8 17.4 7 13 12.3 28 16.6 43.4 8.5 31.1 13.4 64.2 16.9 97.8 4.1-16.5 6.7-33.3 8.2-50.4 1.5-17.1 1.8-34.3 0.6-51.8z"/><path class="c" d="m297.3 605.4q-0.2-0.1-0.6-0.3c0.5 0.4 0.8 0.5 0.6 0.3z"/><path class="b" d="m247.8 612.4l72.4-95.9-9.5 73.9 42.2-0.6-76.6 104.5 22-88.9z"/></svg>